<?xml version="1.0" standalone="no"?>
<!DOCTYPE svg PUBLIC "-//W3C//DTD SVG 20010904//EN"
 "http://www.w3.org/TR/2001/REC-SVG-20010904/DTD/svg10.dtd">
<svg version="1.0" xmlns="http://www.w3.org/2000/svg"
 width="512.000000pt" height="512.000000pt" viewBox="0 0 512.000000 512.000000"
 preserveAspectRatio="xMidYMid meet">

<g transform="translate(0.000000,512.000000) scale(0.100000,-0.100000)"
fill="#000000" stroke="none">
<path d="M3170 4510 c-366 -46 -654 -235 -787 -516 -24 -50 -43 -100 -42 -110
0 -11 9 5 19 33 49 139 148 272 271 365 127 95 231 144 404 189 78 20 115 23
280 23 214 1 270 -7 445 -64 136 -44 207 -77 315 -143 338 -207 543 -515 564
-847 l8 -115 1 88 c5 241 -109 491 -317 697 -199 198 -456 328 -770 390 -74
14 -311 21 -391 10z"/>
<path d="M2893 4133 c-131 -131 -214 -229 -285 -337 l-60 -91 54 -24 c29 -13
48 -25 42 -28 -6 -2 -30 5 -55 16 -48 22 -54 20 -64 -20 -6 -24 -3 -28 39 -44
59 -23 52 -32 -9 -12 -51 18 -51 17 -69 -55 -6 -25 -3 -27 37 -33 67 -11 80
-26 16 -19 -53 6 -56 5 -62 -17 -21 -79 4 -252 50 -347 15 -32 29 -61 31 -66
3 -5 0 -6 -7 -2 -17 11 -13 0 6 -15 14 -12 16 -12 8 0 -5 10 -4 12 3 7 7 -4
12 -13 12 -20 0 -35 155 -175 281 -254 93 -59 234 -123 379 -174 l125 -43 225
0 c191 1 239 4 320 22 96 21 215 61 207 69 -2 3 -29 -4 -58 -15 -78 -28 -177
-50 -271 -61 -109 -13 -113 -12 -48 9 67 22 213 94 258 128 28 21 31 27 20 41
-11 13 -10 15 12 9 17 -4 33 1 57 19 l33 25 -22 21 c-21 18 -16 19 22 4 10 -4
25 3 39 18 l24 25 -27 12 c-14 7 -26 16 -26 21 0 12 8 10 34 -7 22 -15 25 -14
59 24 20 22 53 66 74 96 l37 56 -29 23 c-25 20 -27 26 -21 61 7 33 97 220 152
312 10 17 16 34 13 37 -3 3 -85 -6 -182 -20 l-176 -25 -72 60 c-283 238 -634
391 -896 391 -35 0 -63 2 -63 4 0 2 -7 40 -16 83 -8 43 -18 94 -21 113 -5 38
-23 66 -23 37 0 -55 -94 -173 -163 -205 -45 -21 -117 -37 -117 -27 0 15 76
102 199 228 47 48 83 87 79 87 -4 0 -51 -44 -105 -97z m-10 -513 c2 3 9 14 15
25 11 19 11 19 12 -2 0 -24 14 -31 25 -13 3 6 11 10 17 10 7 0 7 -4 -1 -14 -9
-11 -5 -16 18 -26 51 -21 65 -45 62 -103 -3 -55 -18 -80 -63 -103 -82 -42
-208 29 -208 118 0 16 12 41 30 61 16 19 27 37 23 41 -3 3 4 6 16 6 18 0 21 4
16 23 -6 21 -6 21 14 -3 11 -14 22 -23 24 -20z m333 -359 c23 -10 45 -25 49
-31 11 -18 -18 -37 -66 -45 -30 -5 -40 -12 -45 -30 -8 -31 0 -43 39 -54 l32
-9 -28 -1 c-17 -1 -37 8 -53 24 -14 14 -36 25 -49 25 -22 0 -61 38 -50 49 3 3
12 -5 21 -17 17 -25 42 -28 69 -8 14 10 17 17 9 27 -15 19 -26 68 -19 79 9 15
46 11 91 -9z m486 -7 c24 -12 28 -12 38 4 10 15 11 14 7 -5 -5 -24 7 -40 18
-23 3 5 11 10 17 10 7 0 6 -5 -2 -15 -17 -21 -3 -36 27 -29 18 5 24 3 19 -5
-4 -6 -14 -11 -22 -11 -8 0 -12 -4 -9 -10 10 -16 -16 -88 -39 -108 -34 -31
-84 -43 -126 -32 -130 35 -155 181 -39 222 16 5 27 14 23 19 -7 12 54 0 88
-17z"/>
<path d="M2913 3568 c-47 -52 -71 -138 -38 -138 20 0 77 80 70 99 -3 8 0 18 6
22 13 7 5 39 -9 39 -5 0 -18 -10 -29 -22z"/>
<path d="M3646 3197 c-46 -60 -57 -117 -22 -117 21 0 66 61 68 93 1 15 6 27
10 27 4 0 8 7 8 15 0 27 -38 16 -64 -18z"/>
<path d="M2326 3838 c-3 -13 -5 -32 -5 -43 1 -11 5 -2 10 19 10 42 6 62 -5 24z"/>
<path d="M4631 3254 c0 -11 3 -14 6 -6 3 7 2 16 -1 19 -3 4 -6 -2 -5 -13z"/>
<path d="M2414 3230 c0 -13 4 -16 10 -10 7 7 7 13 0 20 -6 6 -10 3 -10 -10z"/>
<path d="M2370 3185 c-21 -22 -22 -27 -10 -55 7 -17 17 -33 21 -36 5 -3 2 11
-8 30 -16 35 -16 36 7 61 13 14 21 25 18 25 -2 0 -15 -11 -28 -25z"/>
<path d="M4605 3159 c-4 -6 -5 -12 -2 -15 2 -3 7 2 10 11 7 17 1 20 -8 4z"/>
<path d="M1915 3086 c-58 -26 -115 -105 -101 -141 3 -8 18 -20 33 -26 23 -9
42 -6 103 16 41 14 82 29 90 31 9 3 46 -17 85 -46 39 -28 100 -66 137 -83 37
-18 68 -35 68 -38 0 -3 -48 -18 -107 -33 -261 -67 -340 -103 -430 -194 -63
-63 -92 -113 -154 -265 -41 -102 -63 -117 -175 -117 -123 0 -169 -25 -194
-105 -17 -55 -44 -81 -95 -94 -62 -16 -134 -14 -253 6 -92 16 -106 16 -130 2
-33 -18 -51 -63 -36 -87 14 -22 59 -37 175 -57 110 -19 147 -29 291 -84 59
-23 116 -41 127 -41 11 0 43 20 71 45 46 41 56 45 100 45 30 0 69 -9 98 -22
62 -28 182 -107 182 -119 0 -14 -172 -93 -281 -130 -184 -61 -401 -90 -519
-69 -142 26 -273 104 -470 280 -172 154 -204 167 -238 96 -30 -60 49 -201 167
-301 119 -100 255 -167 418 -206 121 -29 386 -24 543 10 141 31 342 93 451
140 l89 39 33 -47 c46 -66 45 -120 -5 -192 -70 -102 -69 -111 18 -195 62 -60
101 -134 144 -274 49 -161 66 -196 106 -215 48 -23 97 -7 115 37 12 30 9 43
-40 183 -88 250 -96 282 -80 301 8 10 47 32 87 51 103 47 179 98 202 135 11
18 25 60 32 92 14 73 33 93 95 101 76 10 173 44 233 80 170 104 339 366 424
658 22 79 30 93 76 137 l52 50 116 2 117 1 -135 7 c-161 8 -206 15 -329 47
-309 80 -596 268 -763 497 -77 105 -92 117 -26 19 15 -23 28 -45 28 -49 0 -19
-101 9 -194 55 -160 77 -276 100 -351 67z m886 -472 c45 -31 86 -100 96 -158
5 -32 3 -36 -16 -36 -33 0 -142 -39 -178 -63 -45 -30 -73 -85 -73 -141 0 -109
86 -109 161 1 18 27 37 51 43 55 16 11 86 10 86 -1 0 -56 -27 -177 -50 -226
-98 -206 -366 -340 -610 -305 -127 18 -215 73 -263 165 -45 86 -31 278 29 398
77 154 251 261 534 327 117 27 188 22 241 -16z"/>
<path d="M4414 2848 l-29 -33 33 29 c17 17 32 31 32 33 0 8 -8 1 -36 -29z"/>
<path d="M4195 2690 c-27 -17 -46 -30 -41 -30 11 0 96 49 96 55 0 7 0 7 -55
-25z"/>
</g>
</svg>
